<?xml version="1.0" standalone="no"?>
<!DOCTYPE svg PUBLIC "-//W3C//DTD SVG 20010904//EN"
 "http://www.w3.org/TR/2001/REC-SVG-20010904/DTD/svg10.dtd">
<svg version="1.0" xmlns="http://www.w3.org/2000/svg"
 width="3543.000000pt" height="3543.000000pt" viewBox="0 0 3543.000000 3543.000000"
 preserveAspectRatio="xMidYMid meet">
<metadata>
Created by potrace 1.11, written by Peter Selinger 2001-2013
</metadata>
<g transform="translate(0.000000,3543.000000) scale(0.100000,-0.100000)"
fill="#000000" stroke="none">
<path d="M19220 27035 l0 -6705 745 0 746 0 -4 -3972 c-3 -2915 -7 -4022 -15
-4158 -44 -689 -91 -1071 -178 -1465 -149 -671 -433 -1046 -964 -1269 -261
-111 -649 -187 -1009 -198 l-94 -3 -746 1777 -746 1777 -215 1 c-233 0 -416
17 -564 51 -211 50 -427 145 -593 262 -103 73 -281 241 -366 347 -399 494
-654 1276 -756 2320 -29 288 -37 430 -67 1145 -14 347 -28 631 -29 633 -2 2
-1090 -139 -2418 -314 l-2415 -318 -6 -44 c-3 -25 -6 -468 -6 -986 0 -991 4
-1119 51 -1571 120 -1176 406 -2205 851 -3065 393 -759 907 -1390 1553 -1905
670 -534 1509 -934 2454 -1170 828 -207 1816 -302 2758 -265 197 8 392 14 433
15 l74 0 741 -1762 c407 -970 745 -1769 750 -1777 9 -13 29 -13 160 0 2623
251 4499 1463 5566 3594 539 1077 871 2402 984 3925 8 116 21 282 27 370 9
121 13 2345 15 9017 l3 8858 -747 2 -748 3 -3 1778 -2 1777 -2610 0 -2610 0 0
-6705z"/>
<path d="M12870 2638 c0 -290 -4 -531 -10 -568 -15 -94 -56 -169 -107 -198
-55 -30 -150 -38 -223 -18 -30 8 -56 13 -58 12 -1 -2 -9 -36 -17 -77 -10 -56
-11 -75 -2 -81 25 -15 111 -28 191 -28 195 0 320 86 379 260 21 64 22 77 25
633 l3 567 -91 0 -90 0 0 -502z"/>
<path d="M19910 2638 c0 -290 -4 -531 -10 -568 -15 -94 -56 -169 -107 -198
-55 -30 -150 -38 -223 -18 -30 8 -56 13 -58 12 -1 -2 -9 -36 -17 -77 -10 -56
-11 -75 -2 -81 25 -15 111 -28 191 -28 195 0 320 86 379 260 21 64 22 77 25
633 l3 567 -91 0 -90 0 0 -502z"/>
<path d="M13768 2735 c-58 -15 -152 -57 -162 -74 -3 -4 4 -36 15 -69 l20 -60
47 24 c26 13 80 31 121 40 179 37 292 -29 308 -179 l5 -54 -108 -6 c-230 -13
-385 -91 -451 -225 -25 -50 -28 -68 -28 -152 0 -84 3 -101 27 -146 57 -109
152 -158 291 -153 69 3 94 10 149 37 36 18 82 50 102 72 l36 40 0 -34 c0 -18
3 -48 6 -65 l7 -31 85 0 85 0 -8 33 c-4 17 -10 194 -14 392 -7 338 -9 363 -30
416 -29 76 -89 141 -159 176 -51 25 -69 28 -172 30 -74 2 -136 -3 -172 -12z
m352 -615 c0 -125 -12 -165 -63 -218 -49 -52 -103 -75 -172 -76 -108 -2 -168
61 -168 174 0 145 120 219 371 229 l32 1 0 -110z"/>
<path d="M15013 2731 c-88 -30 -160 -99 -189 -178 -20 -56 -17 -160 5 -210 29
-63 94 -119 190 -164 138 -65 153 -72 181 -99 57 -53 59 -148 6 -205 -62 -65
-190 -68 -322 -6 l-61 29 -24 -75 c-26 -85 -29 -79 61 -115 47 -19 74 -22 190
-23 128 0 138 2 196 28 119 55 178 147 178 277 -2 152 -70 229 -285 324 -126
55 -170 109 -149 185 27 103 163 135 305 72 26 -12 49 -21 50 -21 2 0 13 30
26 67 21 64 21 67 3 80 -69 50 -262 69 -361 34z"/>
<path d="M16168 2727 c-214 -75 -328 -256 -328 -521 0 -167 40 -282 135 -384
89 -97 196 -142 335 -142 237 0 415 141 475 375 20 77 20 252 0 330 -38 148
-133 267 -262 327 -60 29 -79 32 -178 35 -95 3 -119 1 -177 -20z m269 -149
c105 -49 173 -191 173 -363 -1 -140 -39 -244 -117 -316 -57 -52 -103 -71 -175
-71 -149 0 -264 125 -287 313 -15 117 7 245 58 329 72 121 222 167 348 108z"/>
<path d="M17648 2731 c-74 -30 -117 -60 -159 -113 l-39 -50 0 59 c0 103 0 103
-93 103 l-80 0 6 -137 c4 -75 7 -306 7 -515 l0 -378 89 0 90 0 3 348 c3 342 3
348 27 395 87 176 319 198 401 37 34 -68 40 -134 40 -460 l0 -320 90 0 90 0 0
358 c0 380 -4 421 -51 515 -29 58 -85 114 -144 145 -68 35 -206 42 -277 13z"/>
<path d="M20798 2735 c-58 -15 -152 -57 -162 -74 -3 -4 4 -36 15 -69 l20 -60
47 24 c26 13 80 31 121 40 179 37 292 -29 308 -179 l5 -54 -108 -6 c-230 -13
-385 -91 -451 -225 -25 -50 -28 -68 -28 -152 0 -84 3 -101 27 -146 57 -109
152 -158 291 -153 69 3 94 10 149 37 36 18 82 50 102 72 l36 40 0 -34 c0 -18
3 -48 6 -65 l7 -31 85 0 85 0 -8 33 c-4 17 -10 194 -14 392 -7 338 -9 363 -30
416 -29 76 -89 141 -159 176 -51 25 -69 28 -172 30 -74 2 -136 -3 -172 -12z
m352 -615 c0 -125 -12 -165 -63 -218 -49 -52 -103 -75 -172 -76 -108 -2 -168
61 -168 174 0 145 120 219 371 229 l32 1 0 -110z"/>
<path d="M22238 2731 c-74 -30 -117 -60 -159 -113 l-39 -50 0 59 c0 103 0 103
-93 103 l-80 0 6 -137 c4 -75 7 -306 7 -515 l0 -378 89 0 90 0 3 348 c3 342 3
348 27 395 87 176 319 198 401 37 34 -68 40 -134 40 -460 l0 -320 90 0 90 0 0
358 c0 380 -4 421 -51 515 -29 58 -85 114 -144 145 -68 35 -206 42 -277 13z"/>
</g>
</svg>
